<?xml version="1.0" encoding="UTF-8" standalone="no"?>
<!-- Created with Inkscape (http://www.inkscape.org/) -->

<svg
   width="400mm"
   height="400mm"
   viewBox="0 0 400 400"
   version="1.1"
   id="svg1"
   xmlns:xlink="http://www.w3.org/1999/xlink"
   xmlns="http://www.w3.org/2000/svg"
   xmlns:svg="http://www.w3.org/2000/svg">
  <defs
     id="defs1">
    <linearGradient
       id="linearGradient23">
      <stop
         style="stop-color:#000000;stop-opacity:1;"
         offset="0"
         id="stop24" />
      <stop
         style="stop-color:#000000;stop-opacity:0;"
         offset="1"
         id="stop25" />
    </linearGradient>
    <radialGradient
       xlink:href="#linearGradient23"
       id="radialGradient26"
       gradientUnits="userSpaceOnUse"
       gradientTransform="matrix(0.99997946,-0.00640947,0.00572059,0.89250339,103.20305,76.362388)"
       cx="99.691147"
       cy="121.04732"
       fx="99.691147"
       fy="121.04732"
       r="57.157722" />
    <radialGradient
       xlink:href="#linearGradient23"
       id="radialGradient100"
       gradientUnits="userSpaceOnUse"
       gradientTransform="matrix(0.99997946,-0.00640947,0.00572059,0.89250339,103.20305,76.362388)"
       cx="99.691147"
       cy="121.04732"
       fx="99.691147"
       fy="121.04732"
       r="57.157722" />
    <radialGradient
       xlink:href="#linearGradient23"
       id="radialGradient101"
       gradientUnits="userSpaceOnUse"
       gradientTransform="matrix(1,0,0,0.89252172,0,13.009957)"
       cx="99.691147"
       cy="121.04732"
       fx="99.691147"
       fy="121.04732"
       r="57.157722" />
    <radialGradient
       xlink:href="#linearGradient23"
       id="radialGradient102"
       gradientUnits="userSpaceOnUse"
       gradientTransform="matrix(1,0,0,0.89252172,0,13.009957)"
       cx="99.691147"
       cy="121.04732"
       fx="99.691147"
       fy="121.04732"
       r="57.157722" />
    <radialGradient
       xlink:href="#linearGradient23"
       id="radialGradient103"
       gradientUnits="userSpaceOnUse"
       gradientTransform="matrix(1,0,0,0.89252172,0,13.009957)"
       cx="99.691147"
       cy="121.04732"
       fx="99.691147"
       fy="121.04732"
       r="57.157722" />
    <radialGradient
       xlink:href="#linearGradient23"
       id="radialGradient104"
       gradientUnits="userSpaceOnUse"
       gradientTransform="matrix(1,0,0,0.89252172,0,13.009957)"
       cx="99.691147"
       cy="121.04732"
       fx="99.691147"
       fy="121.04732"
       r="57.157722" />
    <radialGradient
       xlink:href="#linearGradient23"
       id="radialGradient105"
       gradientUnits="userSpaceOnUse"
       gradientTransform="matrix(1,0,0,0.89252172,0,13.009957)"
       cx="99.691147"
       cy="121.04732"
       fx="99.691147"
       fy="121.04732"
       r="57.157722" />
    <radialGradient
       xlink:href="#linearGradient23"
       id="radialGradient106"
       gradientUnits="userSpaceOnUse"
       gradientTransform="matrix(1,0,0,0.89252172,0,13.009957)"
       cx="99.691147"
       cy="121.04732"
       fx="99.691147"
       fy="121.04732"
       r="57.157722" />
    <radialGradient
       xlink:href="#linearGradient23"
       id="radialGradient107"
       gradientUnits="userSpaceOnUse"
       gradientTransform="matrix(1,0,0,0.89252172,0,13.009957)"
       cx="99.691147"
       cy="121.04732"
       fx="99.691147"
       fy="121.04732"
       r="57.157722" />
    <radialGradient
       xlink:href="#linearGradient23"
       id="radialGradient108"
       gradientUnits="userSpaceOnUse"
       gradientTransform="matrix(1,0,0,0.89252172,0,13.009957)"
       cx="99.691147"
       cy="121.04732"
       fx="99.691147"
       fy="121.04732"
       r="57.157722" />
  </defs>
  <circle
     style="fill:#000080;stroke-width:0.512839"
     id="path1"
     cx="204.92009"
     cy="153.88315"
     r="137.47144" />
  <path
     id="path123-7"
     style="fill:#00dfff;fill-opacity:1;stroke:#000000;stroke-width:0.203486;stroke-dasharray:none;stroke-opacity:1"
     d="m 138.21275,254.32206 c -6.10835,1.35626 -6.5893,24.20733 -1.44302,28.94903 a 68.743553,10.289476 0 0 0 68.42138,9.29478 68.743553,10.289476 0 0 0 68.42137,-9.29478 c 5.14625,-4.74176 4.66533,-27.59277 -1.44301,-28.94903 -6.63052,-1.47222 -127.3262,-1.47222 -133.95672,0 z" />
  <path
     id="ellipse124"
     style="fill:#ff7fff;fill-opacity:1;stroke:#000000;stroke-width:0.2;stroke-dasharray:none;stroke-opacity:1"
     d="m 136.65586,246.55618 c -6.36018,0.97252 -7.24013,17.48078 -1.93683,20.79356 0.14584,0.0911 0.29799,0.1682 0.4532,0.23875 a 71.860069,9.508893 0 0 0 70.29132,7.60108 71.860069,9.508893 0 0 0 70.33886,-7.65483 c 0.40028,-0.21607 0.77245,-0.50112 1.11569,-0.84542 4.49892,-4.51283 4.07571,-19.13217 -1.85312,-20.05252 -6.82503,-1.05948 -131.53239,-1.13213 -138.40912,-0.0806 z" />
  <path
     id="path123"
     style="fill:#00dfff;fill-opacity:1;stroke:#000000;stroke-width:0.2;stroke-dasharray:none;stroke-opacity:1"
     d="m 135.17679,235.09268 c -6.38528,1.25338 -6.88803,22.37091 -1.50844,26.75289 a 71.860069,9.508893 0 0 0 71.52329,8.58966 71.860069,9.508893 0 0 0 71.52328,-8.58966 c 5.37956,-4.38203 4.87684,-25.49951 -1.50843,-26.75289 -6.93111,-1.36052 -133.09859,-1.36052 -140.0297,0 z" />
  <path
     style="fill:#000000;stroke:url(#radialGradient26);stroke-width:0.264583"
     id="path2"
     d="m 210.41132,137.78104 a 1.7289779,0.19210866 89.632762 0 1 2.7e-4,0.0577 l -0.19236,-0.0565 z" />
  <path
     style="fill:#000000;stroke:url(#radialGradient100);stroke-width:0.264583"
     id="path76"
     d="m 210.41132,137.78102 a 1.7289779,0.19210866 89.632762 0 1 2.7e-4,0.0577 l -0.19236,-0.0565 z" />
  <path
     style="fill:#000080;fill-opacity:1;stroke:#000000;stroke-width:0.2;stroke-dasharray:none;stroke-opacity:1"
     d="M 179.38191,89.222688 V 113.13076 Z"
     id="path121" />
  <path
     style="fill:#000080;fill-opacity:1;stroke:#000000;stroke-width:0.2;stroke-dasharray:none;stroke-opacity:1"
     d="M 223.66619,88.679318 V 112.5874 Z"
     id="path122" />
  <path
     id="path71"
     style="fill:#ff7fff;fill-opacity:1;stroke:#000000;stroke-width:0.10284;stroke-dasharray:none;stroke-opacity:1"
     d="m 202.90602,121.11532 a 65.123421,17.768633 0.26123556 0 0 -64.94995,15.92682 16.32621,51.001823 0.26123556 0 0 -8.70998,44.73114 16.32621,51.001823 0.26123556 0 0 8.59969,45.30875 65.123421,17.768633 0.26123556 0 0 3.00628,3.68898 16.32621,51.001823 0.26123556 0 0 0.82097,0.71946 65.123421,17.768633 0.26123556 0 0 60.86817,11.80252 65.123421,17.768633 0.26123556 0 0 64.03491,-14.14761 16.32671,50.041782 0.26123556 0 0 10.39257,-46.31461 16.32671,50.041782 0.26123556 0 0 -9.46126,-45.73694 65.123421,17.768633 0.26123556 0 0 -64.6014,-15.97851 z" />
  <g
     id="g158"
     transform="translate(13.927148,-49.878848)">
    <path
       id="path7"
       style="fill:#f9f9f9;stroke:#000000;stroke-width:0.264712;stroke-dasharray:none;stroke-opacity:1"
       d="m 120.12152,166.62423 c -0.52505,0.0373 -0.92577,0.14706 -1.18524,0.33727 -3.97228,2.91221 0.0286,43.13333 4.51613,52.25418 -10.26477,21.24462 -5.16707,48.29192 15.01666,63.88372 26.34942,20.35478 76.52222,19.72857 102.20929,-1.2755 18.29381,-14.95865 23.23537,-39.49035 15.04653,-59.72489 4.90607,-9.24133 10.63578,-49.1993 6.78237,-52.2924 -3.96597,-3.18346 -43.86246,11.99071 -50.20762,18.50829 -14.10943,-3.33244 -29.77454,-3.46463 -44.0822,-0.4329 -4.44034,-6.04039 -40.22016,-21.81709 -48.09592,-21.25777 z" />
    <path
       style="fill:#e9afaf;stroke:#000000;stroke-width:0.161705;stroke-dasharray:none;stroke-opacity:1"
       id="path41-5"
       d="M 93.364814,40.727037 C 91.368363,45.18578 47.631872,49.689319 44.768714,45.73097 41.905556,41.77262 59.873622,1.6439394 64.733232,1.1435461 69.592842,0.64315292 95.361266,36.268295 93.364814,40.727037 Z"
       transform="matrix(0.5824695,0.57505027,-0.57505027,0.5824695,217.27846,141.42223)" />
    <g
       id="g80"
       transform="matrix(1.1278128,-0.00722883,0.00722883,1.1278128,145.59108,28.72126)"
       style="stroke:url(#radialGradient104)">
      <ellipse
         style="fill:#000000;stroke:url(#radialGradient101);stroke-width:0.257043"
         id="ellipse78"
         cx="14.233209"
         cy="182.84245"
         rx="10.808987"
         ry="10.392681" />
      <ellipse
         style="fill:#f9f9f9;stroke:url(#radialGradient102);stroke-width:0.326838"
         id="ellipse79"
         cx="17.48189"
         cy="180.19792"
         rx="1.8984857"
         ry="2.0171409" />
      <ellipse
         style="fill:#f9f9f9;stroke:url(#radialGradient103);stroke-width:0.17801"
         id="ellipse80"
         cx="20.651684"
         cy="177.79657"
         rx="1.0339967"
         ry="1.0986214" />
    </g>
    <g
       id="g83"
       transform="matrix(1.1278128,-0.00722883,0.00722883,1.1278128,196.44694,28.90385)"
       style="stroke:url(#radialGradient108)">
      <ellipse
         style="fill:#000000;stroke:url(#radialGradient105);stroke-width:0.257043"
         id="ellipse81"
         cx="14.233209"
         cy="182.84245"
         rx="10.808987"
         ry="10.392681" />
      <ellipse
         style="fill:#f9f9f9;stroke:url(#radialGradient106);stroke-width:0.326838"
         id="ellipse82"
         cx="17.48189"
         cy="180.19792"
         rx="1.8984857"
         ry="2.0171409" />
      <ellipse
         style="fill:#f9f9f9;stroke:url(#radialGradient107);stroke-width:0.17801"
         id="ellipse83"
         cx="20.651684"
         cy="177.79657"
         rx="1.0339967"
         ry="1.0986214" />
    </g>
    <path
       style="fill:#e9afaf;stroke:#000000;stroke-width:0.161705;stroke-dasharray:none;stroke-opacity:1"
       id="path83"
       d="M 93.364814,40.727037 C 91.368363,45.18578 47.631872,49.689319 44.768714,45.73097 41.905556,41.77262 59.873622,1.6439394 64.733232,1.1435461 69.592842,0.64315292 95.361266,36.268295 93.364814,40.727037 Z"
       transform="matrix(0.70621009,-0.41378836,0.41378836,0.70621009,80.716404,202.90487)" />
    <g
       id="g86"
       transform="matrix(1.3235375,-0.00848335,0.00848335,1.3235375,57.896487,71.302782)">
      <path
         style="fill:#000000;stroke:#000000;stroke-width:0.2;stroke-dasharray:none;stroke-opacity:1"
         id="path84"
         d="m 56.191785,130.34573 c 0.02329,0.92003 -10.407651,7.29966 -11.216067,6.85982 -0.808417,-0.43984 -1.117867,-12.66312 -0.332742,-13.14331 0.785124,-0.48018 11.525517,5.36346 11.548809,6.28349 z"
         transform="matrix(0.99809765,0.13755365,-0.04139886,0.30039262,6.1570086,82.334696)" />
      <path
         style="fill:#000000;stroke:#000000;stroke-width:0.2;stroke-dasharray:none;stroke-opacity:1"
         id="path85"
         d="m 56.191785,130.34573 c 0.02329,0.92003 -10.407651,7.29966 -11.216067,6.85982 -0.808417,-0.43984 -1.117867,-12.66312 -0.332742,-13.14331 0.785124,-0.48018 11.525517,5.36346 11.548809,6.28349 z"
         transform="matrix(1.0063938,-0.04786927,0.01440698,0.30288946,-1.1882312,96.922492)" />
      <path
         style="fill:#000000;stroke:#000000;stroke-width:0.2;stroke-dasharray:none;stroke-opacity:1"
         id="path86"
         d="m 56.191785,130.34573 c 0.02329,0.92003 -10.407651,7.29966 -11.216067,6.85982 -0.808417,-0.43984 -1.117867,-12.66312 -0.332742,-13.14331 0.785124,-0.48018 11.525517,5.36346 11.548809,6.28349 z"
         transform="matrix(0.98714894,-0.20163562,0.06068529,0.29709743,-5.4294457,110.91541)" />
    </g>
    <g
       id="g134"
       transform="translate(86.395096,132.03779)">
      <path
         style="fill:#000000;stroke:#000000;stroke-width:0.2;stroke-dasharray:none;stroke-opacity:1"
         id="path87"
         d="m 56.191785,130.34573 c 0.02329,0.92003 -10.407651,7.29966 -11.216067,6.85982 -0.808417,-0.43984 -1.117867,-12.66312 -0.332742,-13.14331 0.785124,-0.48018 11.525517,5.36346 11.548809,6.28349 z"
         transform="matrix(-0.29222342,1.3011212,-0.39159217,-0.08794909,177.03215,8.0027168)" />
      <path
         style="fill:#000000;stroke:#000000;stroke-width:0.2;stroke-dasharray:none;stroke-opacity:1"
         id="path88"
         d="m 56.191785,130.34573 c 0.02329,0.92003 -10.407651,7.29966 -11.216067,6.85982 -0.808417,-0.43984 -1.117867,-12.66312 -0.332742,-13.14331 0.785124,-0.48018 11.525517,5.36346 11.548809,6.28349 z"
         transform="matrix(-0.07299637,1.3315339,-0.40074529,-0.02196936,160.25123,-2.4306393)" />
      <path
         style="fill:#000000;stroke:#000000;stroke-width:0.2;stroke-dasharray:none;stroke-opacity:1"
         id="path89"
         d="m 56.191785,130.34573 c 0.02329,0.92003 -10.407651,7.29966 -11.216067,6.85982 -0.808417,-0.43984 -1.117867,-12.66312 -0.332742,-13.14331 0.785124,-0.48018 11.525517,5.36346 11.548809,6.28349 z"
         transform="matrix(0.02059379,1.3333743,-0.40129918,0.006198,148.17586,-5.9694609)" />
    </g>
    <g
       id="g135"
       transform="translate(86.395096,132.03779)">
      <path
         style="fill:#000000;stroke:#000000;stroke-width:0.2;stroke-dasharray:none;stroke-opacity:1"
         id="path90"
         d="m 56.191785,130.34573 c 0.02329,0.92003 -10.407651,7.29966 -11.216067,6.85982 -0.808417,-0.43984 -1.117867,-12.66312 -0.332742,-13.14331 0.785124,-0.48018 11.525517,5.36346 11.548809,6.28349 z"
         transform="matrix(-1.1936273,-0.59461315,0.17895785,-0.35924022,198.49059,202.70399)" />
      <path
         style="fill:#000000;stroke:#000000;stroke-width:0.2;stroke-dasharray:none;stroke-opacity:1"
         id="path91"
         d="m 56.191785,130.34573 c 0.02329,0.92003 -10.407651,7.29966 -11.216067,6.85982 -0.808417,-0.43984 -1.117867,-12.66312 -0.332742,-13.14331 0.785124,-0.48018 11.525517,5.36346 11.548809,6.28349 z"
         transform="matrix(-1.2824476,-0.36556702,0.11002294,-0.38597201,214.064,187.70397)" />
      <path
         style="fill:#000000;stroke:#000000;stroke-width:0.2;stroke-dasharray:none;stroke-opacity:1"
         id="path92"
         d="m 56.191785,130.34573 c 0.02329,0.92003 -10.407651,7.29966 -11.216067,6.85982 -0.808417,-0.43984 -1.117867,-12.66312 -0.332742,-13.14331 0.785124,-0.48018 11.525517,5.36346 11.548809,6.28349 z"
         transform="matrix(-1.3233387,-0.16457697,0.04953193,-0.39827884,224.981,171.6321)" />
    </g>
    <g
       id="g138"
       transform="translate(86.395096,132.03779)">
      <g
         id="g130"
         transform="matrix(1.0016086,0.04461314,0.05529144,1.0008567,-5.8810297,-6.9371231)"
         style="fill:#f9f9f9">
        <path
           id="path127"
           style="fill:#f9f9f9;fill-opacity:1;stroke:#000000;stroke-width:0.45;stroke-dasharray:none;stroke-opacity:1"
           d="m 101.01255,123.74122 -19.665985,20.64371 c 3.769649,5.92391 13.681461,5.79628 17.329174,-0.27337 2.502961,-4.16483 3.274641,-13.15425 2.336811,-20.37034 z" />
        <rect
           style="fill:#f9f9f9;fill-opacity:1;stroke:none;stroke-width:0.196199;stroke-dasharray:none;stroke-opacity:1"
           id="rect128"
           width="21.097942"
           height="28.799139"
           x="292.70892"
           y="-280.76511"
           transform="matrix(-0.48012918,0.87719779,-0.87301627,0.48769109,0,0)" />
      </g>
      <g
         id="g137">
        <path
           id="path132"
           style="fill:#f9f9f9;fill-opacity:1;stroke:#000000;stroke-width:0.45;stroke-dasharray:none;stroke-opacity:1"
           d="m 104.92893,120.16954 14.98308,21.95552 c -5.04186,5.58112 -14.85026,4.69733 -17.13734,-1.59493 -1.56934,-4.31757 -0.36108,-13.28286 2.15426,-20.36059 z" />
        <rect
           style="fill:#f9f9f9;fill-opacity:1;stroke:none;stroke-width:0.18508;stroke-dasharray:none;stroke-opacity:1"
           id="rect132"
           width="20.02634"
           height="26.998842"
           x="56.914776"
           y="105.46387"
           transform="matrix(0.29903451,0.9542423,0.80990944,0.58655494,0,0)" />
      </g>
      <path
         style="fill:#1a1a1a;stroke:#000000;stroke-width:0.263876;stroke-dasharray:none;stroke-opacity:1"
         id="path80"
         d="m 40.919147,196.71927 c -3.354039,5.4969 -19.907539,5.09515 -22.990972,-0.55798 -3.083434,-5.65313 5.541238,-19.78801 11.978711,-19.63177 6.437472,0.15623 14.3663,14.69285 11.012261,20.18975 z"
         transform="matrix(-0.74388701,0.02650396,-0.02881257,-0.68093522,129.3407,252.46679)" />
    </g>
  </g>
  <g
     id="g127"
     transform="translate(98.637784,82.553537)">
    <circle
       style="fill:#000000;fill-opacity:1;stroke:#000000;stroke-width:0.1;stroke-dasharray:none;stroke-opacity:1"
       id="path114"
       cx="57.061138"
       cy="136.07785"
       r="2" />
    <g
       id="g126"
       transform="translate(0.27168268)">
      <path
         style="fill:#000000;fill-opacity:1;stroke:#000000;stroke-width:0.1;stroke-dasharray:none;stroke-opacity:1"
         id="path110"
         d="m 90.098962,159.6423 c -1.548591,1.38558 -5.53033,1.16437 -6.915912,-0.38422 -1.385582,-1.54859 -1.164374,-5.53033 0.384217,-6.91591 1.548592,-1.38558 5.530331,-1.16438 6.915912,0.38422 1.385582,1.54859 1.164374,5.53033 -0.384217,6.91591 z"
         transform="matrix(1.2998418,0,0,0.77886787,-21.409111,15.138534)" />
      <rect
         style="fill:#000000;fill-opacity:1;stroke:#000000;stroke-width:0.0964147;stroke-dasharray:none;stroke-opacity:1"
         id="rect114"
         width="32.506172"
         height="4.0035853"
         x="56.907852"
         y="134.07607" />
      <path
         style="fill:#000000;fill-opacity:1;stroke:#000000;stroke-width:0.1;stroke-dasharray:none;stroke-opacity:1"
         id="path115"
         d="m 2.1131948,102.0097 c -2.36363929,2.01045 -28.9190428,-0.13377 -30.9294948,-2.49741 -2.010452,-2.363639 0.133774,-28.919042 2.497413,-30.929494 2.363639,-2.010452 28.9190427,0.133773 30.9294945,2.497412 2.0104518,2.36364 -0.1337734,28.919043 -2.4974127,30.929492 z"
         transform="matrix(0.81543179,0.49266094,0.03750436,0.15481314,50.839778,121.07657)" />
    </g>
  </g>
  <path
     id="path108"
     style="opacity:0.8;fill:#1a1a1a;fill-opacity:0.361702;stroke:#000000;stroke-width:0.10284;stroke-dasharray:none;stroke-opacity:1"
     d="m 202.93875,120.9873 a 65.123421,17.768633 0.26123556 0 0 -64.94996,15.92681 16.32621,51.001823 0.26123556 0 0 -8.70998,44.73114 16.32621,51.001823 0.26123556 0 0 8.59969,45.30876 65.123421,17.768633 0.26123556 0 0 3.00628,3.68898 16.32621,51.001823 0.26123556 0 0 0.82097,0.71946 65.123421,17.768633 0.26123556 0 0 60.86817,11.80252 65.123421,17.768633 0.26123556 0 0 64.03492,-14.14761 16.32671,50.041782 0.26123556 0 0 10.39257,-46.31461 16.32671,50.041782 0.26123556 0 0 -9.46127,-45.73694 65.123421,17.768633 0.26123556 0 0 -64.60139,-15.97851 z" />
  <ellipse
     style="fill:#000000;fill-opacity:1;stroke:#000000;stroke-width:0.00371845;stroke-dasharray:none;stroke-opacity:1"
     id="path140"
     cx="-185.13393"
     cy="-209.40579"
     rx="0.0055264048"
     ry="0.0051298179"
     transform="scale(-1)" />
  <path
     style="fill:#180081;fill-opacity:1;stroke:#000000;stroke-width:0.450001;stroke-dasharray:none;stroke-opacity:1"
     d="m 176.3934,90.581098 3.53187,23.093032 z"
     id="path142" />
  <path
     style="fill:#180081;fill-opacity:1;stroke:#000000;stroke-width:0.450001;stroke-dasharray:none;stroke-opacity:1"
     d="m 235.34854,90.037738 -5.97702,23.364712 z"
     id="path143" />
  <g
     id="g1">
    <g
       id="g154"
       transform="translate(5.7046272,-58.293478)">
      <path
         style="fill:#f9f9f9;fill-opacity:1;stroke:none;stroke-width:0.450001;stroke-dasharray:none;stroke-opacity:1"
         id="path147-5-4"
         d="m 343.95136,136.24346 -0.33299,6.26519 -3.62483,-5.12095 -6.06145,1.61935 3.75018,-5.02987 -3.41318,-5.26438 5.94256,2.01232 3.95199,-4.87292 -0.0775,6.27356 5.85565,2.25275 z"
         transform="matrix(0.36158981,0,0,0.36158981,-26.639383,128.31728)" />
      <path
         style="fill:#f9f9f9;fill-opacity:1;stroke:none;stroke-width:0.450001;stroke-dasharray:none;stroke-opacity:1"
         id="path147-5-4-68"
         d="m 343.95136,136.24346 -0.33299,6.26519 -3.62483,-5.12095 -6.06145,1.61935 3.75018,-5.02987 -3.41318,-5.26438 5.94256,2.01232 3.95199,-4.87292 -0.0775,6.27356 5.85565,2.25275 z"
         transform="matrix(0.60666197,0,0,0.60666197,-125.33171,131.88393)" />
      <path
         style="fill:#f9f9f9;fill-opacity:1;stroke:none;stroke-width:0.450001;stroke-dasharray:none;stroke-opacity:1"
         id="path147-5-4-6"
         d="m 343.95136,136.24346 -0.33299,6.26519 -3.62483,-5.12095 -6.06145,1.61935 3.75018,-5.02987 -3.41318,-5.26438 5.94256,2.01232 3.95199,-4.87292 -0.0775,6.27356 5.85565,2.25275 z"
         transform="matrix(0.23690031,0,0,0.23690031,29.16276,124.87278)" />
    </g>
    <g
       id="g153"
       transform="matrix(1.0994254,0,0,1.0994254,-7.0775288,-74.527588)">
      <path
         style="fill:#f9f9f9;fill-opacity:1;stroke:none;stroke-width:0.450001;stroke-dasharray:none;stroke-opacity:1"
         id="path147-5-0"
         d="m 343.95136,136.24346 -0.33299,6.26519 -3.62483,-5.12095 -6.06145,1.61935 3.75018,-5.02987 -3.41318,-5.26438 5.94256,2.01232 3.95199,-4.87292 -0.0775,6.27356 5.85565,2.25275 z"
         transform="matrix(0.32934072,0,0,0.32934072,91.086586,78.100257)" />
      <path
         style="fill:#f9f9f9;fill-opacity:1;stroke:none;stroke-width:0.450001;stroke-dasharray:none;stroke-opacity:1"
         id="path147-5-7"
         d="m 343.95136,136.24346 -0.33299,6.26519 -3.62483,-5.12095 -6.06145,1.61935 3.75018,-5.02987 -3.41318,-5.26438 5.94256,2.01232 3.95199,-4.87292 -0.0775,6.27356 5.85565,2.25275 z"
         transform="matrix(0.288501,0,0,0.288501,90.460531,91.624207)" />
      <path
         style="fill:#f9f9f9;fill-opacity:1;stroke:none;stroke-width:0.450001;stroke-dasharray:none;stroke-opacity:1"
         id="path147-5-2"
         d="m 343.95136,136.24346 -0.33299,6.26519 -3.62483,-5.12095 -6.06145,1.61935 3.75018,-5.02987 -3.41318,-5.26438 5.94256,2.01232 3.95199,-4.87292 -0.0775,6.27356 5.85565,2.25275 z"
         transform="matrix(0.2624269,0,0,0.2624269,77.816618,82.853187)" />
      <path
         style="fill:#f9f9f9;fill-opacity:1;stroke:none;stroke-width:0.450001;stroke-dasharray:none;stroke-opacity:1"
         id="path147-5-3"
         d="m 343.95136,136.24346 -0.33299,6.26519 -3.62483,-5.12095 -6.06145,1.61935 3.75018,-5.02987 -3.41318,-5.26438 5.94256,2.01232 3.95199,-4.87292 -0.0775,6.27356 5.85565,2.25275 z"
         transform="matrix(0.44278026,0,0,0.49058618,68.52989,66.624811)" />
      <path
         style="fill:#f9f9f9;fill-opacity:1;stroke:none;stroke-width:0.450001;stroke-dasharray:none;stroke-opacity:1"
         id="path147-5"
         d="m 343.95136,136.24346 -0.33299,6.26519 -3.62483,-5.12095 -6.06145,1.61935 3.75018,-5.02987 -3.41318,-5.26438 5.94256,2.01232 3.95199,-4.87292 -0.0775,6.27356 5.85565,2.25275 z"
         transform="matrix(0.32934072,0,0,0.32934072,118.51249,72.061965)" />
    </g>
    <path
       style="fill:#f9f9f9;fill-opacity:1;stroke:none;stroke-width:0.333391;stroke-dasharray:none;stroke-opacity:1"
       id="path147-5-4-4"
       d="m 315.54015,210.04201 -0.2467,4.64167 -2.68551,-3.79394 -4.49073,1.19972 2.77838,-3.72646 -2.52871,-3.9002 4.40265,1.49086 2.92789,-3.61018 -0.0574,4.64787 4.33825,1.66898 z" />
    <path
       style="fill:#ff7fff;fill-opacity:1;stroke:#000000;stroke-width:0.245402;stroke-dasharray:none;stroke-opacity:1"
       id="path119"
       d="m 113.86143,202.54843 c -0.59553,1.93111 -11.60538,2.46372 -12.21952,0.59113 -0.61414,-1.87259 -0.78352,-36.49204 -0.18799,-38.42315 0.59553,-1.93111 11.60538,-2.46372 12.21952,-0.59113 0.61414,1.87259 0.78352,36.49204 0.18799,38.42315 z" />
    <path
       style="fill:#ff7fff;fill-opacity:1;stroke:#000000;stroke-width:0.245402;stroke-dasharray:none;stroke-opacity:1"
       id="path120"
       d="m 307.84287,197.65815 c -0.59553,1.93111 -11.60538,2.46372 -12.21952,0.59113 -0.61414,-1.87259 -0.78352,-36.49204 -0.18799,-38.42315 0.59553,-1.93111 11.60538,-2.46372 12.21952,-0.59113 0.61414,1.87259 0.78352,36.49204 0.18799,38.42315 z" />
    <path
       id="path75"
       style="fill:#00dfff;fill-opacity:1;stroke:#000000;stroke-width:0.2;stroke-dasharray:none;stroke-opacity:1"
       d="m 204.34846,87.820088 a 82.142769,37.722649 0 0 0 -80.97491,31.384652 82.391161,22.480059 0.26123556 0 0 -0.75344,1.63297 20.655171,64.525164 0.26123556 0 0 -11.01949,56.59138 20.655171,64.525164 0.26123556 0 0 10.87996,57.3226 82.391161,22.480059 0.26123556 0 0 3.80339,4.66742 20.655171,64.525164 0.26123556 0 0 1.0387,0.91002 82.391161,22.480059 0.26123556 0 0 77.0077,14.93191 82.391161,22.480059 0.26123556 0 0 81.01366,-17.89865 20.655804,63.310564 0.26123556 0 0 13.14855,-58.59539 20.655804,63.310564 0.26123556 0 0 -11.97033,-57.86417 82.391161,22.480059 0.26123556 0 0 -1.43918,-2.31459 82.142769,37.722649 0 0 0 -80.73461,-30.768152 z m -0.49558,24.177342 c 26.58931,0.11616 53.14544,5.40644 65.62752,15.80885 24.96415,20.80482 24.53347,87.81198 -0.6966,108.39752 -25.23007,20.58554 -106.48984,20.23069 -131.45399,-0.57412 -24.96416,-20.80483 -24.53401,-87.8125 0.69608,-108.39804 12.61503,-10.29277 39.23768,-15.35037 65.82699,-15.23421 z m -9.70484,9.23923 a 65.123421,17.768633 0.26123538 0 0 -23.6554,2.10788 65.123421,17.768633 0.26123556 0 1 23.6554,-2.10788 z m -26.04182,2.49649 a 65.123421,17.768633 0.26123538 0 0 -16.16852,3.90415 65.123421,17.768633 0.26123556 0 1 16.16852,-3.90415 z m -19.38796,5.09477 a 65.123421,17.768633 0.26123538 0 0 -6.88485,3.57033 65.123421,17.768633 0.26123556 0 1 6.88485,-3.57033 z m -15.80317,21.30826 a 16.32621,51.001823 0.26123525 0 0 -2.27841,11.70058 16.32621,51.001823 0.26123556 0 1 2.27841,-11.70058 z m 144.05374,32.69465 a 16.32671,50.041782 0.26123556 0 1 -0.62218,13.02195 16.32671,50.041782 0.26123603 0 0 0.62218,-13.02195 z m -0.62218,13.02195 a 16.32671,50.041782 0.26123556 0 1 -1.70481,12.11915 16.32671,50.041782 0.26123603 0 0 1.70481,-12.11915 z m -146.5585,-0.32453 a 16.32621,51.001823 0.26123525 0 0 0.7152,6.55929 16.32621,51.001823 0.26123525 0 0 2.25361,11.87317 16.32621,51.001823 0.26123556 0 1 -2.96881,-18.43246 z m 2.96881,18.43246 a 16.32621,51.001823 0.26123525 0 0 5.08858,13.12117 16.32621,51.001823 0.26123556 0 1 -5.08858,-13.12117 z" />
    <path
       id="path74"
       style="fill:#ff7fff;fill-opacity:1;stroke:#000000;stroke-width:0.2;stroke-dasharray:none;stroke-opacity:1"
       d="m 203.85288,111.99743 c -26.58931,-0.11616 -53.21195,4.94144 -65.82699,15.23421 -25.23008,20.58554 -25.66024,87.59321 -0.69608,108.39803 24.96415,20.80482 106.22391,21.15967 131.45399,0.57413 25.23007,-20.58554 25.66075,-87.5927 0.6966,-108.39752 -12.48208,-10.40241 -39.03821,-15.69269 -65.62752,-15.80885 z m -0.94671,9.11779 a 65.123421,17.768633 0.26123538 0 1 64.60122,15.97887 16.32671,50.041782 0.26123603 0 1 9.46144,45.73674 16.32671,50.041782 0.26123603 0 1 -10.39265,46.31449 65.123421,17.768633 0.26123538 0 1 -64.03485,14.14745 65.123421,17.768633 0.26123538 0 1 -60.86812,-11.80237 16.32621,51.001823 0.26123525 0 1 -0.82114,-0.71935 65.123421,17.768633 0.26123538 0 1 -3.00653,-3.68918 16.32621,51.001823 0.26123525 0 1 -8.59948,-45.30834 16.32621,51.001823 0.26123525 0 1 8.71007,-44.73164 65.123421,17.768633 0.26123538 0 1 64.95004,-15.92667 z" />
    <ellipse
       style="fill:#ffffff;fill-opacity:1;stroke:#000000;stroke-width:0.174746;stroke-dasharray:none;stroke-opacity:1"
       id="path116"
       cx="181.27812"
       cy="71.756943"
       rx="4.5950532"
       ry="10.30084"
       transform="matrix(0.86168328,0.50744648,-0.24867026,0.9685882,0,0)" />
    <ellipse
       style="fill:#ffffff;fill-opacity:1;stroke:#000000;stroke-width:0.15196;stroke-dasharray:none;stroke-opacity:1"
       id="path117"
       cx="133.19058"
       cy="162.04601"
       rx="3.8309538"
       ry="4.6715779"
       transform="matrix(0.99184561,-0.12744524,0.07425548,0.99723925,0,0)" />
    <path
       id="path4"
       style="fill:#f9f9f9;stroke-width:0.666511"
       d="M 204.10493,-21.080336 A 170.61673,170.61673 0 0 0 33.488475,149.53613 170.61673,170.61673 0 0 0 204.10493,320.1531 170.61673,170.61673 0 0 0 374.72191,149.53613 170.61673,170.61673 0 0 0 204.10493,-21.080336 Z m 1.35857,36.948649 A 137.47144,137.47144 0 0 1 342.9347,153.34003 137.47144,137.47144 0 0 1 205.4635,290.81123 137.47144,137.47144 0 0 1 67.991795,153.34003 137.47144,137.47144 0 0 1 205.4635,15.868313 Z" />
  </g>
</svg>
